# xmcd CD database file
#
# Track frame offsets:
#	150
#	5042
#	11204
#	30085
#	38783
#	59127
#	60808
#	68064
#	73676
#	95918
#	107787
#	130039
#	138387
#	144626
#	153122
#	176016
#
# Disc length: 2396 seconds
#
# Revision: 0
# Processed by: cddbd v1.5.1PL2 Copyright (c) Steve Scherf et al.
# Submitted via: CDex 1.51
#
DISCID=dd095a10
DTITLE=Dreamoon - OTOMODACHI 4-1
DYEAR=2004
DGENRE=Wind Band
TTITLE0=(dreamoon) - (MC)
TTITLE1=(dreamoon) - (MC)
TTITLE2=KOGYO high school - HITOMI WO TOJITE
TTITLE3=(dreamoon) - (MC)
TTITLE4=Dreamoon - Introduction and Dance
TTITLE5=(dreamoon) - (MC)
TTITLE6=Dreamoon - Oldman river
TTITLE7=(dreamoon) - (MC)
TTITLE8=TOTTORI junior high school - Oriental
TTITLE9=(dreamoon) - (MC)
TTITLE10=M.SEKIYA - The Fog
TTITLE11=(dreamoon) - (MC)
TTITLE12=TOTTORI junior high school - Flight of the Bumble-Bee
TTITLE13=(dreamoon) - (MC)
TTITLE14=M.SEKIYA and TOYAMA - Black Forest
TTITLE15=(dreamoon) - take a rest
EXTD=YEAR: 2004
EXTT0=
EXTT1=
EXTT2=
EXTT3=
EXTT4=
EXTT5=
EXTT6=
EXTT7=
EXTT8=
EXTT9=
EXTT10=
EXTT11=
EXTT12=
EXTT13=
EXTT14=
EXTT15=
PLAYORDER=
